<svg width="49" height="49" viewBox="0 0 49 49" fill="none" xmlns="http://www.w3.org/2000/svg">
<path d="M24.5 49C38.031 49 49 38.031 49 24.5C49 10.969 38.031 0 24.5 0C10.969 0 0 10.969 0 24.5C0 38.031 10.969 49 24.5 49ZM20.4254 29.4832L31.7856 19.2315C32.2842 18.789 31.6767 18.5732 31.0148 18.9746L16.9941 27.8201L10.9379 25.9298C9.63003 25.5294 9.62064 24.6307 11.2315 23.9845L34.8312 14.8846C35.909 14.3953 36.9493 15.1435 36.5379 16.7932L32.5188 35.7323C32.2382 37.0782 31.425 37.4 30.2983 36.7784L24.1761 32.2552L21.2333 35.1167C20.8915 35.4491 20.6208 35.7292 20.0083 35.7292L20.4254 29.4832Z" fill="black"/>
<path d="M24.5 49C38.031 49 49 38.031 49 24.5C49 10.969 38.031 0 24.5 0C10.969 0 0 10.969 0 24.5C0 38.031 10.969 49 24.5 49ZM20.4254 29.4832L31.7856 19.2315C32.2842 18.789 31.6767 18.5732 31.0148 18.9746L16.9941 27.8201L10.9379 25.9298C9.63003 25.5294 9.62064 24.6307 11.2315 23.9845L34.8312 14.8846C35.909 14.3953 36.9493 15.1435 36.5379 16.7932L32.5188 35.7323C32.2382 37.0782 31.425 37.4 30.2983 36.7784L24.1761 32.2552L21.2333 35.1167C20.8915 35.4491 20.6208 35.7292 20.0083 35.7292L20.4254 29.4832Z" fill="black"/>
</svg>
