<svg width="49" height="49" viewBox="0 0 49 49" fill="none" xmlns="http://www.w3.org/2000/svg">
<mask id="mask0_36_141" style="mask-type:luminance" maskUnits="userSpaceOnUse" x="0" y="0" width="49" height="49">
<path d="M49 0H0V49H49V0Z" fill="white"/>
</mask>
<g mask="url(#mask0_36_141)">
<path d="M23.4945 49H25.5348C36.6108 49 42.1498 49 45.5896 45.5602C49.0294 42.1204 49 36.5834 49 25.5349V23.4652C49 12.4185 49 6.87961 45.5896 3.43981C42.1792 9.85712e-06 36.6108 0 25.5348 0H23.4945C12.4166 0 6.8796 9.85712e-06 3.4398 3.43981C-2.19047e-06 6.87961 0 12.4146 0 23.4652V25.5349C0 36.5834 -2.19047e-06 42.1204 3.4398 45.5602C6.8796 49 12.4166 49 23.4945 49Z" fill="black"/>
<path d="M26.2941 35.3288C15.2456 35.3288 8.54047 27.6633 8.27979 14.9252H13.8756C14.0501 24.2823 18.3071 28.2532 21.5706 29.0626V14.9252H26.935V22.9984C30.0828 22.6496 33.3757 18.9765 34.485 14.9252H39.7594C38.9146 19.9095 35.3297 23.5825 32.7935 25.0976C35.3297 26.3226 39.4104 29.5291 40.9844 35.3288H35.1847C33.9597 31.4519 30.957 28.4492 26.935 28.0415V35.3288H26.2941Z" fill="white"/>
</g>
</svg>
